<svg width="20" height="20" viewBox="0 0 20 20" fill="none" xmlns="http://www.w3.org/2000/svg">
<g id="&#240;&#159;&#166;&#134; icon &#34;cog&#34;">
<path id="Vector" d="M19.4589 11.8265L17.6905 10.8807C17.869 9.98871 17.869 9.07366 17.6905 8.18167L19.4589 7.23586C19.6623 7.12821 19.7536 6.90522 19.6872 6.6976C19.2264 5.32887 18.4418 4.09086 17.4165 3.06046C17.2587 2.90283 17.0014 2.86438 16.8021 2.97203L15.0337 3.91784C14.2907 3.32575 13.4355 2.86822 12.5098 2.56833V0.680558C12.5098 0.465251 12.3479 0.276858 12.1196 0.230721C10.5961 -0.0845486 9.03527 -0.0691696 7.58652 0.230721C7.3582 0.276858 7.19631 0.465251 7.19631 0.680558V2.57218C6.27475 2.87591 5.41961 3.33344 4.6724 3.92169L2.90815 2.97588C2.70474 2.86822 2.45152 2.90283 2.29378 3.06431C1.26844 4.09086 0.483865 5.32887 0.0230855 6.70144C-0.0474844 6.90906 0.0479925 7.13206 0.2514 7.23971L2.0198 8.18552C1.8413 9.0775 1.8413 9.99255 2.0198 10.8845L0.2514 11.8303C0.0479925 11.938 -0.0433333 12.161 0.0230855 12.3686C0.483865 13.7373 1.26844 14.9754 2.29378 16.0058C2.45152 16.1634 2.70889 16.2018 2.90815 16.0942L4.67655 15.1484C5.41961 15.7405 6.27475 16.198 7.20046 16.4979V18.3895C7.20046 18.6048 7.36235 18.7932 7.59067 18.8393C9.11415 19.1546 10.675 19.1392 12.1237 18.8393C12.3521 18.7932 12.514 18.6048 12.514 18.3895V16.4979C13.4355 16.1941 14.2907 15.7366 15.0379 15.1484L16.8063 16.0942C17.0097 16.2018 17.2629 16.1672 17.4206 16.0058C18.446 14.9792 19.2305 13.7412 19.6913 12.3686C19.7536 12.1572 19.6623 11.9342 19.4589 11.8265ZM9.85306 12.607C8.02239 12.607 6.53212 11.2267 6.53212 9.53118C6.53212 7.83565 8.02239 6.45538 9.85306 6.45538C11.6837 6.45538 13.174 7.83565 13.174 9.53118C13.174 11.2267 11.6837 12.607 9.85306 12.607Z" fill="white"/>
</g>
</svg>
